<?xml version="1.0" encoding="UTF-8"?>
<svg width="18px" height="18px" viewBox="0 0 18 18" version="1.1" xmlns="http://www.w3.org/2000/svg" xmlns:xlink="http://www.w3.org/1999/xlink">
    <!-- Generator: Sketch 59.1 (86144) - https://sketch.com -->
    <title>Fill 1</title>
    <desc>Created with Sketch.</desc>
    <g id="Circle-Mobile-Wireframe" stroke="none" stroke-width="1" fill="none" fill-rule="evenodd">
        <g id="Mobile-Home" transform="translate(-93.000000, -7820.000000)" fill="#FFFFFF">
            <path d="M105.669651,7835.77117 C105.591557,7835.30696 105.181875,7833.05131 104.173473,7830.28093 C106.65481,7829.88428 108.804869,7830.56479 108.963536,7830.61654 C108.62141,7832.75847 107.395462,7834.60569 105.669651,7835.77117 M101.959438,7836.60173 C100.098822,7836.60173 98.3928448,7835.94043 97.0630811,7834.84034 C97.1644171,7834.92215 97.2350733,7834.97483 97.2350733,7834.97483 C97.2350733,7834.97483 98.7086289,7831.76163 103.267199,7830.17378 C103.283934,7830.16727 103.300978,7830.16231 103.318022,7830.15735 C104.399559,7832.9677 104.846119,7835.32128 104.959851,7835.99311 C104.037911,7836.38481 103.023621,7836.60173 101.959438,7836.60173 M94.0157703,7829.46335 C94.0157703,7829.38185 94.019489,7829.30128 94.0222781,7829.22102 C94.1577026,7829.22381 97.9557882,7829.30995 101.91285,7828.12588 C102.133186,7828.55693 102.343916,7828.9948 102.536361,7829.43236 C102.434715,7829.46056 102.334309,7829.49124 102.233593,7829.52378 C98.0856346,7830.86434 95.9820605,7834.5966 95.9820605,7834.5966 C95.9820605,7834.5966 95.9845396,7834.59877 95.9848495,7834.60032 C94.7610702,7833.23868 94.0157703,7831.43825 94.0157703,7829.46335 M98.2582467,7822.03147 C98.3602025,7822.16844 99.7816955,7824.09562 101.112079,7826.46004 C97.4215274,7827.44052 94.2187522,7827.40209 94.0157703,7827.39837 C94.5153226,7825.01784 96.114696,7823.04387 98.2582467,7822.03147 M100.134874,7822.03147 C100.134564,7822.03209 100.133324,7822.03271 100.133324,7822.03271 C100.133324,7822.03271 100.124647,7822.03488 100.110392,7822.03767 C100.118139,7822.03581 100.126506,7822.03426 100.134874,7822.03147 M106.998141,7823.94935 C106.979237,7823.9791 105.884374,7825.64504 102.983438,7826.73243 C101.669479,7824.31842 100.225983,7822.40054 100.110392,7822.24839 C100.691447,7822.1077 101.297294,7822.03147 101.922044,7822.03147 C103.867881,7822.03147 105.643895,7822.75691 106.998141,7823.94935 M109.187659,7828.86833 C109.076407,7828.84416 106.475139,7828.28451 103.834206,7828.61671 C103.780284,7828.485 103.725432,7828.35268 103.668411,7828.21974 C103.508505,7827.84354 103.336513,7827.47106 103.157703,7827.10478 C106.192824,7825.86616 107.425281,7824.08432 107.439846,7824.06294 C108.517974,7825.3719 109.169995,7827.04435 109.187659,7828.86833 M110.816542,7827.1881 C110.698781,7826.60985 110.521521,7826.04059 110.291888,7825.49644 C110.066593,7824.9625 109.787067,7824.4484 109.461986,7823.96777 C109.140314,7823.49117 108.770608,7823.04338 108.363715,7822.6365 C107.956821,7822.22901 107.508712,7821.85931 107.032401,7821.53796 C106.551443,7821.21227 106.036705,7820.93337 105.503374,7820.70747 C104.959817,7820.47846 104.390538,7820.30059 103.811962,7820.18345 C103.219441,7820.06167 102.609565,7820 102.00031,7820 C101.390125,7820 100.780249,7820.06167 100.187418,7820.18345 C99.6091523,7820.30059 99.0398733,7820.47846 98.4963157,7820.70747 C97.9629846,7820.93337 97.4482474,7821.21227 96.9669789,7821.53796 C96.4906687,7821.85931 96.0425591,7822.22901 95.6356656,7822.6365 C95.2287721,7823.04338 94.8593761,7823.49117 94.537704,7823.96777 C94.2126231,7824.4484 93.9330969,7824.9625 93.7078025,7825.49644 C93.4778597,7826.04059 93.3012189,7826.60985 93.1825288,7827.1881 C93.0613594,7827.77967 93,7828.38984 93,7828.99907 C93,7829.61016 93.0613594,7830.22002 93.1825288,7830.81252 C93.3012189,7831.39046 93.4778597,7831.96002 93.7078025,7832.50325 C93.9330969,7833.03657 94.2126231,7833.55222 94.537704,7834.03285 C94.8593761,7834.50945 95.2287721,7834.95662 95.6356656,7835.36412 C96.0425591,7835.77068 96.4906687,7836.13976 96.9669789,7836.46204 C97.4482474,7836.7868 97.9629846,7837.06632 98.4963157,7837.2916 C99.0398733,7837.52216 99.6091523,7837.69755 100.187418,7837.81655 C100.780249,7837.93864 101.390125,7838 102.00031,7838 C102.609565,7838 103.219441,7837.93864 103.811962,7837.81655 C104.390538,7837.69755 104.959817,7837.52216 105.503374,7837.2916 C106.036705,7837.06632 106.551443,7836.7868 107.032401,7836.46204 C107.508712,7836.13976 107.956821,7835.77068 108.363715,7835.36412 C108.770608,7834.95662 109.140314,7834.50945 109.461986,7834.03285 C109.787067,7833.55222 110.066593,7833.03657 110.291888,7832.50325 C110.521521,7831.96002 110.698781,7831.39046 110.816542,7830.81252 C110.938331,7830.22002 111,7829.61016 111,7828.99907 C111,7828.38984 110.938331,7827.77967 110.816542,7827.1881" id="Fill-1"></path>
        </g>
    </g>
</svg>