<?xml version="1.0" encoding="UTF-8"?>
<svg width="18px" height="18px" viewBox="0 0 18 18" version="1.1" xmlns="http://www.w3.org/2000/svg" xmlns:xlink="http://www.w3.org/1999/xlink">
    <!-- Generator: Sketch 59.1 (86144) - https://sketch.com -->
    <title>Fill 1</title>
    <desc>Created with Sketch.</desc>
    <g id="Circle-Mobile-Wireframe" stroke="none" stroke-width="1" fill="none" fill-rule="evenodd">
        <g id="Mobile-Home" transform="translate(-213.000000, -7820.000000)" fill="#FFFFFF">
            <path d="M228.923427,7838 L215.076573,7838 C213.929908,7838 213,7837.0698 213,7835.92229 L213,7822.0766 C213,7820.92965 213.929908,7820 215.076573,7820 L228.923427,7820 C230.070368,7820 231,7820.92965 231,7822.0766 L231,7835.92229 C231,7837.0698 230.070368,7838 228.923427,7838 L228.923427,7838 Z M221.517351,7826.06711 C219.605414,7826.06711 218.055844,7827.6167 218.055844,7829.52867 C218.055844,7831.44036 219.605414,7832.9905 221.517351,7832.9905 C223.429287,7832.9905 224.979133,7831.44036 224.979133,7829.52867 C224.979133,7827.6167 223.429287,7826.06711 221.517351,7826.06711 L221.517351,7826.06711 Z M228.595808,7822.71457 C228.595808,7822.33234 228.285839,7822.02237 227.90279,7822.02237 L225.826217,7822.02237 C225.443995,7822.02237 225.134026,7822.33234 225.134026,7822.71457 L225.134026,7824.79173 C225.134026,7825.17395 225.443995,7825.48393 225.826217,7825.48393 L227.90279,7825.48393 C228.285839,7825.48393 228.595808,7825.17395 228.595808,7824.79173 L228.595808,7822.71457 Z M228.869192,7828.08947 L227.302248,7828.08947 C227.416418,7828.53292 227.483706,7828.99596 227.483706,7829.47471 C227.483706,7832.53391 225.004504,7835.01315 221.945627,7835.01315 C218.887025,7835.01315 216.407547,7832.53391 216.407547,7829.47471 C216.407547,7828.99596 216.475111,7828.53292 216.589282,7828.08947 L215.022338,7828.08947 L215.022338,7835.70562 C215.022338,7836.0873 215.332307,7836.39727 215.715356,7836.39727 L228.176173,7836.39727 C228.559222,7836.39727 228.869192,7836.0873 228.869192,7835.70562 L228.869192,7828.08947 Z" id="Fill-1"></path>
        </g>
    </g>
</svg>