<?xml version="1.0" encoding="UTF-8"?>
<svg width="131px" height="19px" viewBox="0 0 131 19" version="1.1" xmlns="http://www.w3.org/2000/svg" xmlns:xlink="http://www.w3.org/1999/xlink">
    <!-- Generator: Sketch 59.1 (86144) - https://sketch.com -->
    <title>path2540</title>
    <desc>Created with Sketch.</desc>
    <g id="Circle-Mobile-Wireframe" stroke="none" stroke-width="1" fill="none" fill-rule="evenodd">
        <g id="Mobile-Home" transform="translate(-94.000000, -4293.000000)" fill="#FFFFFF">
            <path d="M98.7690895,4293.00103 C95.5892368,4293.00103 94.5791579,4293.02927 94.5791579,4293.02927 C94.0937684,4293.03139 94,4293.15916 94,4293.62223 L94,4311.40245 C94,4311.8874 94.1082474,4311.9954 94.5791579,4311.9954 L98.2175105,4311.9954 C98.7084158,4311.9954 98.7966684,4311.86411 98.7966684,4311.40245 L98.7966684,4297.46021 C98.7966684,4297.46021 104.797847,4307.09293 106.818695,4310.33019 C107.841874,4311.96929 108.013553,4311.99258 110.954158,4311.9947 L115.888721,4311.9947 C116.368595,4311.9947 116.467879,4311.88881 116.467879,4311.40174 L116.467879,4293.62152 C116.467879,4293.1528 116.387211,4293.02856 115.888721,4293.02856 L112.249679,4293.02856 C111.767047,4293.02856 111.671211,4293.15351 111.671211,4293.62152 L111.671211,4307.76141 C111.671211,4307.76141 104.374511,4296.13947 103.428553,4294.63661 C102.329532,4292.90221 101.944805,4293.00103 98.7690895,4293.00103 L98.7690895,4293.00103 Z M207.3019,4293.00103 C204.129632,4293.00103 203.111968,4293.02927 203.111968,4293.02927 C202.627268,4293.03139 202.532811,4293.15916 202.532811,4293.62223 L202.532811,4311.40245 C202.534189,4311.8874 202.643126,4311.9954 203.111968,4311.9954 L206.750321,4311.9954 C207.241916,4311.9954 207.329479,4311.86411 207.329479,4311.40245 L207.329479,4297.46021 C207.329479,4297.46021 213.329968,4307.09293 215.351505,4310.33019 C216.374684,4311.96929 216.565668,4311.99258 219.513858,4311.9947 L224.420842,4311.9947 C224.902784,4311.9947 225,4311.88881 225,4311.40174 L225,4293.62152 C225,4293.1528 224.919332,4293.02856 224.420842,4293.02856 L220.782489,4293.02856 C220.300547,4293.02856 220.203332,4293.15351 220.203332,4293.62152 L220.203332,4307.76141 C220.203332,4307.76141 212.912837,4296.13947 211.960674,4294.63661 C210.865789,4292.90221 210.483821,4293.00103 207.3019,4293.00103 L207.3019,4293.00103 Z M121.374174,4293.02927 C121.022542,4293.02927 120.932911,4293.19939 120.932911,4293.50928 L120.932911,4311.40315 C120.932911,4311.89799 121.0253,4311.99611 121.512068,4311.99611 L125.729579,4311.99611 C126.201868,4311.99611 126.308737,4311.86622 126.308737,4311.40315 L126.308737,4293.53752 C126.308737,4293.18739 126.187389,4293.02927 125.812316,4293.02927 L121.374174,4293.02927 L121.374174,4293.02927 Z M136.674284,4293.02927 C133.248289,4293.02927 131.326037,4294.30413 130.802037,4296.95267 C130.684137,4297.54774 130.664142,4298.27552 130.664142,4298.7873 C130.664142,4299.40638 130.680689,4300.04592 130.746879,4300.53723 C130.950963,4302.05562 131.874858,4303.83519 135.819337,4304.23473 C138.954374,4304.55168 143.456637,4304.94699 144.971411,4305.08111 C145.656058,4305.14111 145.7843,4305.65571 145.826358,4305.95572 C145.842905,4306.06796 145.853937,4306.23596 145.853937,4306.46397 C145.853937,4306.66515 145.850489,4306.87551 145.826358,4307.16987 C145.791195,4307.58917 145.592626,4307.79106 145.054147,4307.79106 L131.325347,4307.79106 C130.844784,4307.79106 130.747568,4307.90259 130.746189,4308.38402 L130.746189,4311.37492 C130.7455,4311.8627 130.8634,4311.96787 131.325347,4311.96787 L144.888674,4311.96787 C148.249858,4311.96787 150.446521,4311.40104 151.036021,4308.41225 C151.162195,4307.78047 151.173916,4306.95669 151.173916,4306.37997 C151.173916,4305.48418 151.119447,4304.67522 151.0636,4304.37591 C150.457553,4301.24313 148.166432,4300.64311 144.888674,4300.31134 C143.139479,4300.13486 138.349705,4299.66685 136.783911,4299.52144 C136.211647,4299.46496 136.058584,4299.11343 136.012389,4298.73083 C135.991016,4298.55929 135.984811,4298.42164 135.984811,4298.30729 C135.984811,4298.13364 135.999289,4298.04328 136.012389,4297.91198 C136.062721,4297.3755 136.332995,4297.14961 136.894226,4297.14961 L149.850816,4297.14961 C150.323105,4297.15244 150.429974,4297.07832 150.429974,4296.58489 L150.429974,4293.56575 C150.429974,4293.11045 150.303111,4293.02998 149.850816,4293.02927 L136.674284,4293.02927 L136.674284,4293.02927 Z M160.492153,4293.02927 C157.064779,4293.02927 155.143216,4294.30413 154.619905,4296.95267 C154.501316,4297.54774 154.482011,4298.27552 154.482011,4298.7873 C154.482011,4299.40638 154.499247,4300.04592 154.564747,4300.53723 C154.772279,4302.05562 155.665147,4303.83519 159.609626,4304.23473 C162.743284,4304.55168 167.274505,4304.94699 168.789279,4305.08111 C169.471858,4305.14111 169.598721,4305.65571 169.643537,4305.95572 C169.658705,4306.06796 169.671116,4306.23596 169.671116,4306.46397 C169.671116,4306.66515 169.667668,4306.87551 169.643537,4307.16987 C169.606305,4307.58917 169.409805,4307.79106 168.871326,4307.79106 L155.143216,4307.79106 C154.660584,4307.79106 154.565437,4307.90259 154.564058,4308.38402 L154.564058,4311.37492 C154.561989,4311.8627 154.652311,4311.96787 155.115637,4311.96787 L168.706542,4311.96787 C172.067037,4311.96787 174.260942,4311.40104 174.853889,4308.41225 C174.977305,4307.78047 174.991784,4306.95669 174.991784,4306.37997 C174.991784,4305.48418 174.940763,4304.67522 174.881468,4304.37591 C174.275421,4301.24313 171.981542,4300.64311 168.706542,4300.31134 C166.9539,4300.13486 162.171021,4299.66685 160.601779,4299.52144 C160.029516,4299.46496 159.850253,4299.11343 159.801989,4298.73083 C159.786821,4298.55929 159.801989,4298.42164 159.801989,4298.30729 C159.801989,4298.13364 159.795095,4298.04328 159.801989,4297.91198 C159.857147,4297.3755 160.140521,4297.14961 160.712095,4297.14961 L173.667995,4297.14961 C174.136147,4297.15244 174.247153,4297.07832 174.247153,4296.58489 L174.247153,4293.56575 C174.247153,4293.11045 174.117532,4293.02998 173.667995,4293.02927 L160.492153,4293.02927 L160.492153,4293.02927 Z M188.280011,4293.02927 C187.384384,4293.02786 187.169958,4293.0448 186.488068,4293.05751 C183.674326,4293.10904 184.116279,4292.90009 183.152395,4294.97685 C183.152395,4294.97403 178.305395,4306.25714 176.205947,4310.95138 C176.205947,4310.95279 176.122521,4311.14903 176.122521,4311.14903 C175.731589,4311.94529 175.995658,4311.99682 176.619632,4311.9954 L181.029505,4311.96717 C181.308053,4311.96717 181.4818,4311.81611 181.553505,4311.65728 C181.553505,4311.65728 182.160242,4310.17206 182.986921,4308.18566 L193.628258,4308.18566 C194.425289,4310.12265 195.032026,4311.55845 195.061674,4311.62904 C195.156132,4311.84999 195.345047,4311.99611 195.585674,4311.99611 L200.106553,4311.99611 C200.778789,4311.99611 200.914616,4312.08082 200.658821,4311.45963 C199.854895,4309.50499 194.628684,4297.78492 193.877158,4295.99335 C192.522342,4292.79138 193.033932,4293.1641 190.044374,4293.05821 C189.769963,4293.04762 189.172189,4293.02998 188.280011,4293.02927 L188.280011,4293.02927 Z M188.362747,4297.20608 C188.578553,4297.20608 188.808837,4297.22514 188.886747,4297.23432 C189.077042,4297.26256 189.250789,4297.33668 189.328011,4297.54492 C189.667232,4298.48376 190.823479,4301.32148 192.002479,4304.20579 L184.614079,4304.20579 C185.995784,4300.84571 187.334053,4297.60421 187.370595,4297.51668 C187.450574,4297.33103 187.594674,4297.26044 187.811858,4297.23432 C187.908384,4297.22585 188.132463,4297.20608 188.362747,4297.20608 L188.362747,4297.20608 Z" id="path2540"></path>
        </g>
    </g>
</svg>